<svg width="667" height="46" viewBox="0 0 667 46" fill="none" xmlns="http://www.w3.org/2000/svg">
<path d="M17.1215 0.669865H0.772777V45H17.1215C28.9428 45 41.2673 41.9189 41.2673 22.8035C41.2673 3.75097 28.9428 0.669865 17.1215 0.669865ZM17.1215 36.1969H10.8335V9.47302H17.1215C24.9814 9.47302 31.2065 10.1018 31.2065 22.8035C31.2065 35.5681 24.9814 36.1969 17.1215 36.1969ZM46.95 45H78.5784V36.1969H57.0107V27.2051H75.4345V18.4019H57.0107V9.47302H78.5784V0.669865H46.95V45ZM122.658 32.8014C122.658 23.558 110.145 20.0368 101.97 17.2701C94.8648 14.8807 93.7958 14.1261 93.7958 12.114C93.7958 9.85029 96.6254 8.84422 101.153 8.84422C106.623 8.84422 110.773 10.3533 110.773 15.761H120.834C120.834 6.95783 114.735 0.0410699 101.153 0.0410699C89.7086 0.0410699 83.7351 4.19112 83.7351 11.7367C83.7351 20.4141 91.3435 22.9293 100.713 26.0732C107.189 28.274 112.597 29.7203 112.597 32.9271C112.597 35.3165 110.459 36.8256 103.982 36.8256C95.1792 36.8256 91.7837 34.6877 91.7837 27.8967H81.7229C81.7229 39.0893 87.6965 45.6288 103.668 45.6288C117.313 45.6288 122.658 40.4098 122.658 32.8014ZM155.963 9.47302V0.669865H125.78V9.47302H135.841V36.1969H125.78V45H155.963V36.1969H145.902V9.47302H155.963ZM157.834 22.8035C157.834 36.3855 165.128 45.6288 178.396 45.6288C190.595 45.6288 196.065 36.6999 196.128 22.8035H198.643L196.757 29.7203V45H206.818V25.6331C206.818 22.1747 204.931 20.2883 201.473 20.2883H178.333V27.8339H188.582C188.582 33.8074 184.81 36.8256 178.773 36.8256C171.479 36.8256 167.895 32.6127 167.895 22.8035C167.895 13.0572 172.422 8.84422 180.157 8.84422C186.822 8.84422 190.154 11.2965 191.16 16.5155H201.221C199.901 6.83207 191.286 0.0410699 180.157 0.0410699C167.329 0.0410699 157.834 9.28437 157.834 22.8035ZM211.825 45H221.886V9.47302L219.999 3.18505H222.514L235.908 45H255.715V0.669865H245.654V36.1969L247.54 42.4848H245.025L231.632 0.669865H211.825V45ZM278.391 0.669865L286 45H306.876L312.598 3.18505H315.113L320.835 45H341.711L349.319 0.669865H339.573L332.531 42.4848H330.015L324.545 0.669865H303.166L297.695 42.4848H295.18L288.138 0.669865H278.391ZM353.12 45H384.748V36.1969H363.18V27.2051H381.604V18.4019H363.18V9.47302H384.748V0.669865H353.12V45ZM390.393 45H422.022V36.1969H400.454V27.2051H418.878V18.4019H400.454V9.47302H422.022V0.669865H390.393V45ZM470.991 0.669865H456.277L437.727 16.3898V0.669865H427.666V45H437.727V29.343L456.277 45H470.991L444.267 22.8664L470.991 0.669865ZM492.359 20.98H502.419C502.419 12.4912 505.815 8.84422 513.423 8.84422C519.145 8.84422 521.032 11.6738 521.032 14.5034C521.032 24.3126 497.515 26.7649 492.988 27.3937V45H531.093V36.1969H501.791L495.503 38.0832V35.5681C516.253 31.7324 531.093 29.846 531.093 14.9435C531.093 5.26008 523.799 0.0410699 513.298 0.0410699C501.665 0.0410699 492.359 6.07751 492.359 20.98ZM557.52 0.0410699C544.064 0.0410699 536.141 9.28437 536.141 22.8035C536.141 36.3855 544.064 45.6288 557.52 45.6288C570.914 45.6288 578.836 36.3855 578.836 22.8035C578.836 9.28437 570.914 0.0410699 557.52 0.0410699ZM557.52 8.84422C559.973 8.84422 562.11 9.41013 563.808 10.542L546.894 28.5884C546.453 26.8907 546.202 25.0043 546.202 22.8035C546.202 13.6859 550.415 8.84422 557.52 8.84422ZM557.52 36.8256C555.068 36.8256 552.93 36.2597 551.169 35.065L568.084 17.0186C568.524 18.7163 568.776 20.6656 568.776 22.8035C568.776 31.9839 564.626 36.8256 557.52 36.8256ZM583.854 20.98H593.914C593.914 12.4912 597.31 8.84422 604.918 8.84422C610.64 8.84422 612.527 11.6738 612.527 14.5034C612.527 24.3126 589.01 26.7649 584.482 27.3937V45H622.587V36.1969H593.285L586.997 38.0832V35.5681C607.748 31.7324 622.587 29.846 622.587 14.9435C622.587 5.26008 615.293 0.0410699 604.792 0.0410699C593.16 0.0410699 583.854 6.07751 583.854 20.98ZM627.007 28.0854C627.007 41.4159 636.313 45.6288 647.695 45.6288C658.321 45.6288 666.747 41.7303 666.747 32.99C666.747 25.13 661.277 24.1868 655.617 23.4323V20.9171C661.277 19.9739 666.118 18.7163 666.118 12.0511C666.118 3.9396 658.321 0.0410699 647.695 0.0410699C636.313 0.0410699 627.636 4.25401 627.636 15.6981H637.697C637.697 10.6048 639.835 8.84422 647.695 8.84422C654.171 8.84422 656.058 10.3533 656.058 13.3087C656.058 16.2011 654.36 17.7731 650.587 17.7731H644.425V26.5763H650.587C654.36 26.5763 656.686 28.2111 656.686 31.7324C656.686 35.3165 654.171 36.8256 647.695 36.8256C639.835 36.8256 637.068 35.065 637.068 28.0854H627.007Z" fill="white"/>
</svg>
