<svg width="29" height="21" viewBox="0 0 29 21" fill="none" xmlns="http://www.w3.org/2000/svg">
<path d="M26.9431 10.0725C25.847 5.11741 24.2213 1.95661 21.6157 1.18637C21.1111 1.03916 20.5878 0.96572 20.0621 0.968341C18.4603 0.968341 17.1962 1.92147 14.3434 1.92147C11.4906 1.92147 10.2241 0.968341 8.62464 0.968341C8.07704 0.965506 7.53171 1.03889 7.00433 1.18637C4.39515 1.95661 2.78318 5.12039 1.67457 10.0725C0.542738 15.1306 0.74766 19.1272 2.9601 19.8944C4.50893 20.4306 5.89394 19.322 7.20568 17.6903C8.69493 15.8317 10.5291 15.2599 14.3434 15.2599C18.1577 15.2599 19.9204 15.8317 21.412 17.6903C22.7226 19.3231 24.1588 20.418 25.6665 19.904C28.1101 19.0694 28.0755 15.1902 26.9431 10.0725Z" stroke="#8B8B8B" stroke-width="1.90625" stroke-miterlimit="10"/>
<path d="M16.4883 9.78467C17.1463 9.78467 17.6797 9.25126 17.6797 8.59326C17.6797 7.93527 17.1463 7.40186 16.4883 7.40186C15.8303 7.40186 15.2969 7.93527 15.2969 8.59326C15.2969 9.25126 15.8303 9.78467 16.4883 9.78467Z" fill="#8B8B8B"/>
<path d="M19.1094 12.4058C18.8736 12.4058 18.6431 12.3358 18.4472 12.2048C18.2512 12.0737 18.0985 11.8875 18.0084 11.6696C17.9183 11.4517 17.8949 11.212 17.9411 10.9808C17.9873 10.7496 18.1011 10.5374 18.268 10.3709C18.4349 10.2043 18.6475 10.0911 18.8788 10.0455C19.1101 9.99985 19.3497 10.0239 19.5674 10.1145C19.785 10.2051 19.9709 10.3583 20.1014 10.5546C20.232 10.7509 20.3014 10.9816 20.3008 11.2173C20.3 11.5328 20.1741 11.8351 19.9508 12.0579C19.7274 12.2806 19.4248 12.4058 19.1094 12.4058Z" fill="#8B8B8B"/>
<path d="M19.1094 7.16357C19.7674 7.16357 20.3008 6.63016 20.3008 5.97217C20.3008 5.31417 19.7674 4.78076 19.1094 4.78076C18.4514 4.78076 17.918 5.31417 17.918 5.97217C17.918 6.63016 18.4514 7.16357 19.1094 7.16357Z" fill="#8B8B8B"/>
<path d="M21.7305 9.78467C22.3885 9.78467 22.9219 9.25126 22.9219 8.59326C22.9219 7.93527 22.3885 7.40186 21.7305 7.40186C21.0725 7.40186 20.5391 7.93527 20.5391 8.59326C20.5391 9.25126 21.0725 9.78467 21.7305 9.78467Z" fill="#8B8B8B"/>
<path d="M8.625 5.73389V11.4526M11.4844 8.59326H5.76562" stroke="#8B8B8B" stroke-width="1.90625" stroke-linecap="round" stroke-linejoin="round"/>
</svg>
