<svg width="29" height="22" viewBox="0 0 29 22" fill="none" xmlns="http://www.w3.org/2000/svg">
<path d="M26.9431 10.1042C25.847 5.14915 24.2213 1.98835 21.6157 1.21811C21.1111 1.0709 20.5878 0.997459 20.0621 1.00008C18.4603 1.00008 17.1962 1.9532 14.3434 1.9532C11.4906 1.9532 10.2241 1.00008 8.62464 1.00008C8.07704 0.997244 7.53171 1.07062 7.00433 1.21811C4.39515 1.98835 2.78318 5.15213 1.67457 10.1042C0.542738 15.1623 0.74766 19.1589 2.9601 19.9262C4.50893 20.4623 5.89394 19.3537 7.20568 17.7221C8.69493 15.8635 10.5291 15.2916 14.3434 15.2916C18.1577 15.2916 19.9204 15.8635 21.412 17.7221C22.7226 19.3549 24.1588 20.4498 25.6665 19.9357C28.1101 19.1011 28.0755 15.2219 26.9431 10.1042Z" stroke="white" stroke-width="1.90625" stroke-miterlimit="10"/>
<path d="M16.4883 9.81641C17.1463 9.81641 17.6797 9.283 17.6797 8.625C17.6797 7.967 17.1463 7.43359 16.4883 7.43359C15.8303 7.43359 15.2969 7.967 15.2969 8.625C15.2969 9.283 15.8303 9.81641 16.4883 9.81641Z" fill="white"/>
<path d="M19.1094 12.4375C18.8736 12.4375 18.6431 12.3675 18.4472 12.2365C18.2512 12.1055 18.0985 11.9192 18.0084 11.7013C17.9183 11.4835 17.8949 11.2438 17.9411 11.0126C17.9873 10.7814 18.1011 10.5691 18.268 10.4026C18.4349 10.2361 18.6475 10.1229 18.8788 10.0772C19.1101 10.0316 19.3497 10.0556 19.5674 10.1462C19.785 10.2369 19.9709 10.39 20.1014 10.5864C20.232 10.7827 20.3014 11.0133 20.3008 11.2491C20.3 11.5645 20.1741 11.8668 19.9508 12.0896C19.7274 12.3124 19.4248 12.4375 19.1094 12.4375Z" fill="white"/>
<path d="M19.1094 7.19531C19.7674 7.19531 20.3008 6.6619 20.3008 6.00391C20.3008 5.34591 19.7674 4.8125 19.1094 4.8125C18.4514 4.8125 17.918 5.34591 17.918 6.00391C17.918 6.6619 18.4514 7.19531 19.1094 7.19531Z" fill="white"/>
<path d="M21.7305 9.81641C22.3885 9.81641 22.9219 9.283 22.9219 8.625C22.9219 7.967 22.3885 7.43359 21.7305 7.43359C21.0725 7.43359 20.5391 7.967 20.5391 8.625C20.5391 9.283 21.0725 9.81641 21.7305 9.81641Z" fill="white"/>
<path d="M8.625 5.76562V11.4844M11.4844 8.625H5.76562" stroke="white" stroke-width="1.90625" stroke-linecap="round" stroke-linejoin="round"/>
</svg>
