<svg width="450" height="96" viewBox="0 0 450 96" fill="none" xmlns="http://www.w3.org/2000/svg">
<g clip-path="url(#clip0_185_11)">
<path d="M1.85024 15.712H0.202148V14.5029H4.77503V15.712H3.10373V20.6879H1.85024V15.712Z" fill="url(#paint0_linear_185_11)"/>
<path d="M6.90682 16.6658V20.6884H5.65332V14.5034H6.79075L8.78702 17.2471L10.8065 14.5034H11.944V20.6884H10.6905V16.6658L8.78702 19.27L6.90682 16.6658Z" fill="url(#paint1_linear_185_11)"/>
<path d="M175.35 26.9428C175.297 24.7122 175.702 22.4945 176.54 20.4275C177.379 18.3604 178.633 16.4881 180.224 14.9268C181.815 13.3656 183.71 12.1487 185.79 11.3518C187.871 10.555 190.093 10.195 192.318 10.2945C195.562 10.2248 198.75 11.1435 201.461 12.9289C204.172 14.7142 206.277 17.2822 207.499 20.2928H199.166C198.313 19.2865 197.243 18.4874 196.036 17.9557C194.83 17.424 193.519 17.1737 192.202 17.2235C190.924 17.1684 189.649 17.3783 188.455 17.8401C187.262 18.302 186.177 19.0058 185.269 19.9074C184.36 20.809 183.647 21.889 183.174 23.0797C182.702 24.2703 182.48 25.5459 182.523 26.8265C182.479 28.1153 182.703 29.3991 183.181 30.5964C183.66 31.7936 184.381 32.8782 185.3 33.7812C186.219 34.6843 187.315 35.386 188.519 35.8419C189.724 36.2977 191.009 36.4978 192.295 36.4294C197.123 36.4294 199.885 34.1044 200.652 30.1749H191.366V23.5712H208.149C209.728 37.1502 201.975 43.4981 192.295 43.4981C190.076 43.5897 187.862 43.228 185.787 42.4349C183.713 41.6421 181.82 40.4343 180.226 38.8856C178.633 37.3368 177.37 35.4793 176.516 33.4262C175.661 31.3729 175.233 29.1671 175.257 26.9428" fill="url(#paint2_linear_185_11)"/>
<path d="M211.759 26.9423C211.726 23.629 212.678 20.3809 214.492 17.6103C216.306 14.8398 218.901 12.6717 221.948 11.3813C224.995 10.091 228.356 9.7366 231.604 10.3632C234.852 10.9897 237.841 12.569 240.191 14.9004C242.542 17.2319 244.147 20.2104 244.805 23.4577C245.462 26.705 245.141 30.0748 243.883 33.1391C242.624 36.2033 240.486 38.8242 237.737 40.6685C234.99 42.5128 231.756 43.4975 228.448 43.4975C224.044 43.5162 219.813 41.783 216.684 38.679C213.555 35.575 211.783 31.3537 211.759 26.9423ZM237.803 26.9423C237.744 25.1168 237.149 23.3493 236.094 21.8601C235.038 20.3708 233.568 19.2259 231.867 18.5681C230.166 17.9102 228.309 17.7686 226.529 18.1609C224.748 18.5532 223.122 19.462 221.853 20.774C220.585 22.0859 219.73 23.743 219.395 25.5384C219.061 27.3338 219.262 29.1882 219.972 30.87C220.683 32.5521 221.873 33.9873 223.392 34.9963C224.912 36.0057 226.695 36.5443 228.518 36.5454C231.014 36.4843 233.386 35.4436 235.123 33.6471C236.859 31.851 237.822 29.4429 237.803 26.9423Z" fill="url(#paint3_linear_185_11)"/>
<path d="M248.304 26.9423C248.271 23.629 249.223 20.3809 251.037 17.6103C252.851 14.8398 255.446 12.6717 258.493 11.3813C261.54 10.091 264.901 9.7366 268.149 10.3632C271.397 10.9897 274.385 12.569 276.737 14.9004C279.087 17.2319 280.693 20.2104 281.35 23.4577C282.007 26.705 281.685 30.0748 280.428 33.1391C279.17 36.2033 277.032 38.8242 274.282 40.6685C271.535 42.5128 268.301 43.4975 264.993 43.4975C260.59 43.5162 256.358 41.783 253.229 38.679C250.1 35.575 248.328 31.3537 248.304 26.9423ZM274.349 26.9423C274.29 25.1168 273.695 23.3493 272.638 21.8601C271.583 20.3708 270.113 19.2259 268.412 18.5681C266.711 17.9102 264.855 17.7686 263.074 18.1609C261.293 18.5532 259.667 19.462 258.398 20.774C257.13 22.0859 256.275 23.743 255.941 25.5384C255.606 27.3338 255.807 29.1882 256.518 30.87C257.228 32.5521 258.418 33.9873 259.937 34.9963C261.457 36.0057 263.24 36.5443 265.063 36.5454C267.559 36.4843 269.931 35.4436 271.667 33.6471C273.403 31.851 274.368 29.4429 274.349 26.9423Z" fill="url(#paint4_linear_185_11)"/>
<path d="M286.665 10.9462H297.667C301.966 10.8902 306.111 12.5421 309.196 15.5403C312.279 18.5385 314.052 22.6387 314.125 26.9434C314.028 31.2357 312.241 35.3158 309.156 38.2947C306.068 41.2735 301.931 42.9101 297.646 42.8477H286.644L286.665 10.9462ZM297.667 36.3836C298.892 36.3939 300.106 36.1554 301.236 35.6822C302.366 35.209 303.388 34.5112 304.24 33.6308C305.095 32.7504 305.76 31.7059 306.198 30.5606C306.636 29.415 306.839 28.1923 306.79 26.9667C306.839 25.7409 306.636 24.5183 306.198 23.3728C305.76 22.2274 305.095 21.1829 304.24 20.3025C303.388 19.4222 302.366 18.7243 301.236 18.2511C300.106 17.778 298.892 17.5393 297.667 17.5497H293.909V36.4068L297.667 36.3836Z" fill="url(#paint5_linear_185_11)"/>
<path d="M317.381 26.9427C317.33 24.7142 317.733 22.4985 318.571 20.4331C319.409 18.3677 320.661 16.4965 322.248 14.9356C323.838 13.3747 325.728 12.1573 327.807 11.359C329.884 10.5606 332.104 10.1983 334.326 10.2945C337.571 10.2248 340.759 11.1434 343.471 12.9288C346.18 14.7142 348.286 17.2821 349.508 20.2927H341.199C340.345 19.2864 339.274 18.4873 338.068 17.9557C336.863 17.424 335.551 17.1736 334.234 17.2235C332.955 17.1683 331.682 17.3782 330.487 17.8401C329.294 18.3019 328.21 19.0057 327.302 19.9073C326.393 20.809 325.679 21.889 325.206 23.0796C324.733 24.2703 324.511 25.5459 324.555 26.8264C324.492 28.1371 324.709 29.4463 325.187 30.6676C325.666 31.8892 326.399 32.9951 327.334 33.9131C328.27 34.831 329.389 35.5402 330.619 35.9939C331.85 36.4477 333.161 36.6358 334.467 36.5458C339.296 36.5458 342.057 34.2205 342.825 30.291H333.539V23.5712H350.322C351.899 37.1501 344.147 43.4979 334.467 43.4979C332.247 43.5896 330.033 43.2278 327.959 42.4351C325.885 41.642 323.992 40.4345 322.4 38.8857C320.804 37.3369 319.542 35.4794 318.687 33.4261C317.833 31.3728 317.406 29.167 317.43 26.9427" fill="url(#paint6_linear_185_11)"/>
<path d="M364.644 10.9458H371.19L385.118 42.9633H377.574L374.719 36.1972H361.348L358.423 42.8471H350.879L364.644 10.9458ZM371.958 29.9657L367.919 20.3163L363.879 29.9657H371.958Z" fill="url(#paint7_linear_185_11)"/>
<path d="M395.657 23.1995V42.9633H388.438V10.9458H395.005L405.104 24.7341L415.2 10.9458H421.795V42.9633H414.505V23.1995L405.104 36.1507L395.657 23.1995Z" fill="url(#paint8_linear_185_11)"/>
<path d="M428.595 10.9458H449.044V17.8051H435.836V23.525H446.327V30.3842H435.836V36.1042H449.044V42.9633H428.595V10.9458Z" fill="url(#paint9_linear_185_11)"/>
<path d="M200.094 82.3516L184.356 62.5643V82.3516H177.137V50.334H183.358L199.05 70.0748V50.334H206.315V82.3516H200.094Z" fill="url(#paint10_linear_185_11)"/>
<path d="M223.477 50.334H230L243.928 82.3748H236.384L233.529 75.6087H220.065L217.21 82.3748H209.666L223.477 50.334ZM230.789 69.3539L226.75 59.7044L222.711 69.3539H230.789Z" fill="url(#paint11_linear_185_11)"/>
<path d="M249.804 57.1934H241.563V50.334H265.379V57.1934H257.069V82.3516H249.804V57.1934Z" fill="url(#paint12_linear_185_11)"/>
<path d="M277.015 50.3345H269.796V82.3521H277.015V50.3345Z" fill="url(#paint13_linear_185_11)"/>
<path d="M282.028 66.3314C281.996 63.0181 282.947 59.7703 284.762 56.9996C286.576 54.229 289.169 52.0608 292.216 50.7705C295.263 49.4802 298.624 49.1258 301.872 49.7522C305.122 50.379 308.109 51.9583 310.459 54.2896C312.811 56.6211 314.418 59.5997 315.075 62.847C315.732 66.0943 315.41 69.4641 314.153 72.5284C312.893 75.5926 310.754 78.2132 308.007 80.0575C305.26 81.9018 302.026 82.8865 298.716 82.8868C294.314 82.9052 290.083 81.1723 286.952 78.0683C283.823 74.964 282.052 70.7427 282.028 66.3314ZM308.072 66.3314C308.012 64.5061 307.417 62.7385 306.363 61.2493C305.308 59.76 303.837 58.6152 302.137 57.9573C300.436 57.2995 298.578 57.1578 296.797 57.5501C295.017 57.9425 293.39 58.8512 292.122 60.1631C290.853 61.475 289.999 63.1322 289.664 64.9276C289.331 66.7229 289.531 68.5775 290.242 70.2593C290.951 71.9414 292.141 73.3763 293.66 74.3856C295.18 75.3947 296.964 75.9336 298.787 75.9344C301.282 75.8736 303.654 74.8329 305.392 73.0364C307.128 71.2403 308.091 68.8322 308.072 66.3314Z" fill="url(#paint14_linear_185_11)"/>
<path d="M343.335 82.3521L327.621 62.5648V82.3521H320.377V50.3345H326.62L342.289 70.0753V50.3345H349.554V82.3521H343.335Z" fill="url(#paint15_linear_185_11)"/>
<path d="M88.4081 48.1715C88.0231 46.3253 87.7825 44.4518 87.6887 42.5678C87.6408 41.2564 87.6873 39.9432 87.8279 38.6383H65.3814L43.8633 57.8443H79.2394C77.0574 68.9354 69.1881 75.7713 55.5624 75.7713C38.5708 75.7713 27.8931 63.6573 27.8931 48.311C27.8931 32.9648 38.5708 20.8508 55.3071 20.8508C58.9954 20.753 62.6581 21.4906 66.0222 23.0084C69.3863 24.5262 72.3649 26.7851 74.7361 29.6167H90.2652C91.4416 27.018 92.9557 24.5865 94.7684 22.3854C90.5317 15.7699 84.6898 10.338 77.7891 6.59713C70.8883 2.85626 63.1534 0.928458 55.3071 0.993795C27.3823 0.993795 7.28027 21.7576 7.28027 48.311C7.28027 74.8647 27.3823 95.6284 55.5624 95.6284C73.8539 95.6284 89.7082 87.5136 96.9271 70.6097C91.7455 64.5633 88.745 56.9469 88.4081 48.9854C88.4081 48.7063 88.4081 48.4506 88.4081 48.1715Z" fill="url(#paint16_linear_185_11)"/>
<path d="M70.7906 48.311C70.7906 21.7575 90.8696 0.993652 118.794 0.993652C137.364 0.993652 155.354 11.829 161.784 29.6166H138.223C135.851 26.7863 132.872 24.5283 129.508 23.0106C126.145 21.4929 122.482 20.7546 118.794 20.8506C102.058 20.8506 91.3804 32.9647 91.3804 48.311C91.3804 63.6572 102.058 75.7712 119.05 75.7712C132.699 75.7712 140.544 68.9354 142.726 57.8442H108.442L129.96 38.6382H163.989C168.492 77.4687 146.44 95.6283 119.05 95.6283C90.8463 95.6283 70.7676 74.8644 70.7676 48.311" fill="url(#paint17_linear_185_11)"/>
</g>
<defs>
<linearGradient id="paint0_linear_185_11" x1="2.48859" y1="14.5029" x2="2.48859" y2="20.6879" gradientUnits="userSpaceOnUse">
<stop stop-color="#ED4492"/>
<stop offset="1" stop-color="#EB006C"/>
</linearGradient>
<linearGradient id="paint1_linear_185_11" x1="8.79864" y1="14.5034" x2="8.79864" y2="20.6884" gradientUnits="userSpaceOnUse">
<stop stop-color="#ED4492"/>
<stop offset="1" stop-color="#EB006C"/>
</linearGradient>
<linearGradient id="paint2_linear_185_11" x1="191.805" y1="10.2783" x2="191.805" y2="43.512" gradientUnits="userSpaceOnUse">
<stop stop-color="#ED4492"/>
<stop offset="1" stop-color="#EB006C"/>
</linearGradient>
<linearGradient id="paint3_linear_185_11" x1="228.448" y1="10.0615" x2="228.448" y2="43.4977" gradientUnits="userSpaceOnUse">
<stop stop-color="#ED4492"/>
<stop offset="1" stop-color="#EB006C"/>
</linearGradient>
<linearGradient id="paint4_linear_185_11" x1="264.992" y1="10.0615" x2="264.992" y2="43.4977" gradientUnits="userSpaceOnUse">
<stop stop-color="#ED4492"/>
<stop offset="1" stop-color="#EB006C"/>
</linearGradient>
<linearGradient id="paint5_linear_185_11" x1="300.384" y1="10.9448" x2="300.384" y2="42.8494" gradientUnits="userSpaceOnUse">
<stop stop-color="#ED4492"/>
<stop offset="1" stop-color="#EB006C"/>
</linearGradient>
<linearGradient id="paint6_linear_185_11" x1="333.952" y1="10.2793" x2="333.952" y2="43.5119" gradientUnits="userSpaceOnUse">
<stop stop-color="#ED4492"/>
<stop offset="1" stop-color="#EB006C"/>
</linearGradient>
<linearGradient id="paint7_linear_185_11" x1="367.998" y1="10.9458" x2="367.998" y2="42.9633" gradientUnits="userSpaceOnUse">
<stop stop-color="#ED4492"/>
<stop offset="1" stop-color="#EB006C"/>
</linearGradient>
<linearGradient id="paint8_linear_185_11" x1="405.116" y1="10.9458" x2="405.116" y2="42.9633" gradientUnits="userSpaceOnUse">
<stop stop-color="#ED4492"/>
<stop offset="1" stop-color="#EB006C"/>
</linearGradient>
<linearGradient id="paint9_linear_185_11" x1="438.819" y1="10.9458" x2="438.819" y2="42.9633" gradientUnits="userSpaceOnUse">
<stop stop-color="#ED4492"/>
<stop offset="1" stop-color="#EB006C"/>
</linearGradient>
<linearGradient id="paint10_linear_185_11" x1="191.726" y1="50.334" x2="191.726" y2="82.3516" gradientUnits="userSpaceOnUse">
<stop stop-color="#ED4492"/>
<stop offset="1" stop-color="#EB006C"/>
</linearGradient>
<linearGradient id="paint11_linear_185_11" x1="226.797" y1="50.334" x2="226.797" y2="82.3748" gradientUnits="userSpaceOnUse">
<stop stop-color="#ED4492"/>
<stop offset="1" stop-color="#EB006C"/>
</linearGradient>
<linearGradient id="paint12_linear_185_11" x1="253.471" y1="50.334" x2="253.471" y2="82.3516" gradientUnits="userSpaceOnUse">
<stop stop-color="#ED4492"/>
<stop offset="1" stop-color="#EB006C"/>
</linearGradient>
<linearGradient id="paint13_linear_185_11" x1="273.406" y1="50.3345" x2="273.406" y2="82.3521" gradientUnits="userSpaceOnUse">
<stop stop-color="#ED4492"/>
<stop offset="1" stop-color="#EB006C"/>
</linearGradient>
<linearGradient id="paint14_linear_185_11" x1="298.717" y1="49.4507" x2="298.717" y2="82.8869" gradientUnits="userSpaceOnUse">
<stop stop-color="#ED4492"/>
<stop offset="1" stop-color="#EB006C"/>
</linearGradient>
<linearGradient id="paint15_linear_185_11" x1="334.966" y1="50.3345" x2="334.966" y2="82.3521" gradientUnits="userSpaceOnUse">
<stop stop-color="#ED4492"/>
<stop offset="1" stop-color="#EB006C"/>
</linearGradient>
<linearGradient id="paint16_linear_185_11" x1="52.1037" y1="0.992187" x2="52.1037" y2="95.6284" gradientUnits="userSpaceOnUse">
<stop stop-color="#ED4492"/>
<stop offset="1" stop-color="#EB006C"/>
</linearGradient>
<linearGradient id="paint17_linear_185_11" x1="117.672" y1="0.993652" x2="117.672" y2="95.6283" gradientUnits="userSpaceOnUse">
<stop stop-color="#ED4492"/>
<stop offset="1" stop-color="#EB006C"/>
</linearGradient>
<clipPath id="clip0_185_11">
<rect width="448.839" height="94.6346" fill="white" transform="translate(0.202148 0.993652)"/>
</clipPath>
</defs>
</svg>
