<svg width="28" height="26" viewBox="0 0 28 26" fill="none" xmlns="http://www.w3.org/2000/svg">
<path d="M0 2.73684C0 2.01099 0.288345 1.31486 0.801602 0.801602C1.31486 0.288345 2.01099 0 2.73684 0H24.6316C25.3574 0 26.0536 0.288345 26.5668 0.801602C27.0801 1.31486 27.3684 2.01099 27.3684 2.73684V17.7895C27.3684 18.5153 27.0801 19.2115 26.5668 19.7247C26.0536 20.238 25.3574 20.5263 24.6316 20.5263H15.0526V23.2632H19.1579C19.5208 23.2632 19.8689 23.4073 20.1255 23.664C20.3821 23.9206 20.5263 24.2687 20.5263 24.6316C20.5263 24.9945 20.3821 25.3426 20.1255 25.5992C19.8689 25.8558 19.5208 26 19.1579 26H8.21053C7.8476 26 7.49954 25.8558 7.24291 25.5992C6.98628 25.3426 6.8421 24.9945 6.8421 24.6316C6.8421 24.2687 6.98628 23.9206 7.24291 23.664C7.49954 23.4073 7.8476 23.2632 8.21053 23.2632H12.3158V20.5263H2.73684C2.01099 20.5263 1.31486 20.238 0.801602 19.7247C0.288345 19.2115 0 18.5153 0 17.7895V2.73684ZM24.6316 17.7895V2.73684H2.73684V17.7895H24.6316Z" fill="#8B8B8B"/>
</svg>
