<svg width="18" height="26" viewBox="0 0 18 26" fill="none" xmlns="http://www.w3.org/2000/svg">
<path d="M9 2.4375C5.16013 2.4375 2.5 5.18375 2.5 8.53125C2.5 10.1302 3.189 11.1719 4.099 12.2752L4.44675 12.6864C4.80912 13.1154 5.2105 13.5899 5.54037 14.0644C6.00187 14.7322 6.413 15.5204 6.5495 16.4856C6.58203 16.7992 6.4918 17.1132 6.29775 17.3616C6.1037 17.61 5.82092 17.7736 5.50882 17.818C5.19671 17.8624 4.87955 17.7841 4.62394 17.5996C4.36833 17.4151 4.19416 17.1387 4.138 16.8285C4.073 16.3703 3.87313 15.9396 3.53675 15.4521C3.26231 15.0689 2.96834 14.7001 2.656 14.3471C2.5195 14.1846 2.37488 14.014 2.2205 13.8271C1.20163 12.5938 0.0625 10.9948 0.0625 8.53125C0.0625 3.75375 3.90237 0 9 0C14.0976 0 17.9375 3.75375 17.9375 8.53125C17.9375 10.9948 16.7984 12.5938 15.7795 13.8271C15.6251 14.014 15.4805 14.1846 15.344 14.3455C15.0076 14.7436 14.7216 15.0816 14.4649 15.4521C14.1269 15.9396 13.9286 16.3703 13.8636 16.8285C13.8037 17.1356 13.6281 17.408 13.3731 17.5894C13.1181 17.7707 12.8031 17.8472 12.4934 17.8029C12.1836 17.7587 11.9026 17.5972 11.7085 17.3517C11.5145 17.1063 11.4221 16.7956 11.4505 16.484C11.587 15.5204 11.9981 14.7322 12.4596 14.0644C12.7895 13.5899 13.1909 13.1154 13.5533 12.6864C13.6751 12.5434 13.7921 12.4052 13.8994 12.2752C14.811 11.1719 15.5 10.1302 15.5 8.53125C15.5 5.18375 12.8399 2.4375 9 2.4375ZM5.34375 19.5H12.6562C12.9795 19.5 13.2895 19.6284 13.518 19.857C13.7466 20.0855 13.875 20.3955 13.875 20.7188C13.875 21.042 13.7466 21.352 13.518 21.5805C13.2895 21.8091 12.9795 21.9375 12.6562 21.9375H5.34375C5.02052 21.9375 4.71052 21.8091 4.48196 21.5805C4.2534 21.352 4.125 21.042 4.125 20.7188C4.125 20.3955 4.2534 20.0855 4.48196 19.857C4.71052 19.6284 5.02052 19.5 5.34375 19.5ZM5.75 24.7812C5.75 24.458 5.8784 24.148 6.10696 23.9195C6.33552 23.6909 6.64552 23.5625 6.96875 23.5625H11.0312C11.3545 23.5625 11.6645 23.6909 11.893 23.9195C12.1216 24.148 12.25 24.458 12.25 24.7812C12.25 25.1045 12.1216 25.4145 11.893 25.643C11.6645 25.8716 11.3545 26 11.0312 26H6.96875C6.64552 26 6.33552 25.8716 6.10696 25.643C5.8784 25.4145 5.75 25.1045 5.75 24.7812Z" fill="#8B8B8B"/>
</svg>
