<svg width="18" height="26" viewBox="0 0 18 26" fill="none" xmlns="http://www.w3.org/2000/svg">
<path d="M8.9375 2.4375C5.09763 2.4375 2.4375 5.18375 2.4375 8.53125C2.4375 10.1302 3.1265 11.1719 4.0365 12.2752L4.38425 12.6864C4.74662 13.1154 5.148 13.5899 5.47787 14.0644C5.93937 14.7322 6.3505 15.5204 6.487 16.4856C6.51953 16.7992 6.4293 17.1132 6.23525 17.3616C6.0412 17.61 5.75842 17.7736 5.44632 17.818C5.13421 17.8624 4.81705 17.7841 4.56144 17.5996C4.30583 17.4151 4.13166 17.1387 4.0755 16.8285C4.0105 16.3703 3.81063 15.9396 3.47425 15.4521C3.19981 15.0689 2.90584 14.7001 2.5935 14.3471C2.457 14.1846 2.31238 14.014 2.158 13.8271C1.13913 12.5938 0 10.9948 0 8.53125C0 3.75375 3.83987 0 8.9375 0C14.0351 0 17.875 3.75375 17.875 8.53125C17.875 10.9948 16.7359 12.5938 15.717 13.8271C15.5626 14.014 15.418 14.1846 15.2815 14.3455C14.9451 14.7436 14.6591 15.0816 14.4024 15.4521C14.0644 15.9396 13.8661 16.3703 13.8011 16.8285C13.7412 17.1356 13.5656 17.408 13.3106 17.5894C13.0556 17.7707 12.7406 17.8472 12.4309 17.8029C12.1211 17.7587 11.8401 17.5972 11.646 17.3517C11.452 17.1063 11.3596 16.7956 11.388 16.484C11.5245 15.5204 11.9356 14.7322 12.3971 14.0644C12.727 13.5899 13.1284 13.1154 13.4908 12.6864C13.6126 12.5434 13.7296 12.4052 13.8369 12.2752C14.7485 11.1719 15.4375 10.1302 15.4375 8.53125C15.4375 5.18375 12.7774 2.4375 8.9375 2.4375ZM5.28125 19.5H12.5938C12.917 19.5 13.227 19.6284 13.4555 19.857C13.6841 20.0855 13.8125 20.3955 13.8125 20.7188C13.8125 21.042 13.6841 21.352 13.4555 21.5805C13.227 21.8091 12.917 21.9375 12.5938 21.9375H5.28125C4.95802 21.9375 4.64802 21.8091 4.41946 21.5805C4.1909 21.352 4.0625 21.042 4.0625 20.7188C4.0625 20.3955 4.1909 20.0855 4.41946 19.857C4.64802 19.6284 4.95802 19.5 5.28125 19.5ZM5.6875 24.7812C5.6875 24.458 5.8159 24.148 6.04446 23.9195C6.27302 23.6909 6.58302 23.5625 6.90625 23.5625H10.9688C11.292 23.5625 11.602 23.6909 11.8305 23.9195C12.0591 24.148 12.1875 24.458 12.1875 24.7812C12.1875 25.1045 12.0591 25.4145 11.8305 25.643C11.602 25.8716 11.292 26 10.9688 26H6.90625C6.58302 26 6.27302 25.8716 6.04446 25.643C5.8159 25.4145 5.6875 25.1045 5.6875 24.7812Z" fill="white"/>
</svg>
