<svg width="21" height="26" viewBox="0 0 21 26" fill="none" xmlns="http://www.w3.org/2000/svg">
<path fill-rule="evenodd" clip-rule="evenodd" d="M0 6.5C0 4.77609 0.684819 3.12279 1.90381 1.90381C3.12279 0.684819 4.77609 0 6.5 0H14.3C16.0239 0 17.6772 0.684819 18.8962 1.90381C20.1152 3.12279 20.8 4.77609 20.8 6.5V14.3C20.8 16.0239 20.1152 17.6772 18.8962 18.8962C17.6772 20.1152 16.0239 20.8 14.3 20.8H11.7V23.4H14.3C14.6448 23.4 14.9754 23.537 15.2192 23.7808C15.463 24.0246 15.6 24.3552 15.6 24.7C15.6 25.0448 15.463 25.3754 15.2192 25.6192C14.9754 25.863 14.6448 26 14.3 26H6.5C6.15522 26 5.82456 25.863 5.58076 25.6192C5.33696 25.3754 5.2 25.0448 5.2 24.7C5.2 24.3552 5.33696 24.0246 5.58076 23.7808C5.82456 23.537 6.15522 23.4 6.5 23.4H9.1V20.8H6.5C4.77609 20.8 3.12279 20.1152 1.90381 18.8962C0.684819 17.6772 0 16.0239 0 14.3V6.5ZM10.4 18.2H14.3C15.3343 18.2 16.3263 17.7891 17.0577 17.0577C17.7891 16.3263 18.2 15.3343 18.2 14.3H14.3C13.9552 14.3 13.6246 14.163 13.3808 13.9192C13.137 13.6754 13 13.3448 13 13C13 12.6552 13.137 12.3246 13.3808 12.0808C13.6246 11.837 13.9552 11.7 14.3 11.7H18.2V9.1H14.3C13.9552 9.1 13.6246 8.96304 13.3808 8.71924C13.137 8.47544 13 8.14478 13 7.8C13 7.45522 13.137 7.12456 13.3808 6.88076C13.6246 6.63696 13.9552 6.5 14.3 6.5H18.2C18.2 5.46566 17.7891 4.47368 17.0577 3.74228C16.3263 3.01089 15.3343 2.6 14.3 2.6H6.5C5.46566 2.6 4.47368 3.01089 3.74228 3.74228C3.01089 4.47368 2.6 5.46566 2.6 6.5H6.5C6.84478 6.5 7.17544 6.63696 7.41924 6.88076C7.66304 7.12456 7.8 7.45522 7.8 7.8C7.8 8.14478 7.66304 8.47544 7.41924 8.71924C7.17544 8.96304 6.84478 9.1 6.5 9.1H2.6V11.7H6.5C6.84478 11.7 7.17544 11.837 7.41924 12.0808C7.66304 12.3246 7.8 12.6552 7.8 13C7.8 13.3448 7.66304 13.6754 7.41924 13.9192C7.17544 14.163 6.84478 14.3 6.5 14.3H2.6C2.6 15.3343 3.01089 16.3263 3.74228 17.0577C4.47368 17.7891 5.46566 18.2 6.5 18.2H10.4Z" fill="white"/>
</svg>
